<svg xmlns="http://www.w3.org/2000/svg" fill="none" viewBox="0 0 79 16">
  <path fill="#fff" d="m3.56818 3.65909 2.38637 8.20451h.0909l2.38637-8.20451H12L8.15909 15.2955H3.84091L0 3.65909h3.56818ZM13.1207 15.2955V3.65909h8.3864v2.54546h-5.2273v2h4.7955V10.75h-4.7955v2h5.2046v2.5455h-8.3637Zm2.4319-12.65914c-.3864 0-.7141-.12878-.983-.38636-.2689-.25758-.4034-.56818-.4034-.93182 0-.363635.1345-.674241.4034-.931816C14.8385.128788 15.1662 0 15.5526 0c.375 0 .695.128788.9602.386364.2689.257575.4034.568181.4034.931816 0 .36364-.1345.67424-.4034.93182-.2652.25758-.5852.38636-.9602.38636Zm3.6136 0c-.3864 0-.714-.12878-.983-.38636-.2689-.25758-.4034-.56818-.4034-.93182 0-.363635.1345-.674241.4034-.931816C18.4522.128788 18.7798 0 19.1662 0c.375 0 .6951.128788.9602.386364.269.257575.4034.568181.4034.931816 0 .36364-.1344.67424-.4034.93182-.2651.25758-.5852.38636-.9602.38636ZM23.0739 15.2955V3.65909h5.0227c.8636 0 1.6193.1572 2.267.47159.6478.3144 1.1516.76705 1.5114 1.35796.3598.59091.5398 1.29924.5398 2.125 0 .83333-.1856 1.53598-.5568 2.10795-.3675.57201-.8845 1.00381-1.5512 1.29541-.6629.2917-1.4375.4375-2.3238.4375h-3V9h2.3636c.3712 0 .6875-.04545.9489-.13636.2651-.0947.4678-.24432.6079-.44887.1439-.20454.2159-.47159.2159-.80113 0-.33334-.072-.60417-.2159-.8125-.1401-.21212-.3428-.36743-.6079-.46591-.2614-.10228-.5777-.15341-.9489-.15341H26.233v9.11368h-3.1591Zm6.8181-5.34095 2.9091 5.34095h-3.4318l-2.8409-5.34095h3.3636ZM40.0341 7.29545c-.0303-.37878-.1724-.67424-.4261-.88636-.25-.21212-.6307-.31818-1.1421-.31818-.3257 0-.5928.03977-.8011.11932-.2046.07575-.3561.17992-.4546.3125-.0985.13257-.1496.28409-.1534.45454-.0076.14015.0171.26705.0739.38068.0606.10985.1553.21023.2841.30114.1288.08712.2935.16667.4943.23864.2007.07197.4394.13636.7159.19318l.9545.20454c.644.13637 1.1951.31629 1.6535.53978.4583.22348.8333.48674 1.125.78977.2916.29924.5056.6364.642 1.0114.1402.375.2121.7841.2159 1.2272-.0038.7652-.1951 1.4129-.5739 1.9432-.3787.5303-.9204.9337-1.625 1.2102-.7007.2766-1.5435.4148-2.5284.4148-1.0113 0-1.8939-.1496-2.6477-.4488-.75-.2993-1.3333-.7595-1.75-1.3807-.4129-.625-.6212-1.4243-.625-2.3978h3c.0189.3561.108.6553.2671.8978.159.2424.3825.4261.6704.5511.2917.125.6383.1875 1.0398.1875.3371 0 .6193-.0417.8466-.125.2272-.0833.3996-.1989.517-.3466.1174-.1477.178-.3163.1818-.5057-.0038-.178-.0625-.3333-.1761-.4659-.1098-.1363-.2917-.2575-.5455-.3636-.2537-.1099-.5965-.2121-1.0284-.3068l-1.1591-.25c-1.0303-.2235-1.8428-.59662-2.4375-1.11935-.5909-.52651-.8844-1.24431-.8806-2.1534-.0038-.73864.1931-1.38447.5909-1.9375.4015-.55682.9564-.99053 1.6647-1.30114C36.7292 3.6553 37.5455 3.5 38.4659 3.5c.9394 0 1.7519.1572 2.4375.47159s1.214.75758 1.5852 1.32955c.375.56818.5644 1.23295.5682 1.99431h-3.0227ZM44.0994 6.20455V3.65909h10.1137v2.54546h-3.5v9.09095h-3.1137V6.20455h-3.5ZM55.402 15.2955V3.65909h3.1591v4.70455h.1591l3.5-4.70455h3.6818l-3.9318 5.18182 4.0227 6.45459h-3.7727l-2.6137-4.3637-1.0454 1.3637v3H55.402ZM69.8622 15.2955h-3.4091L70.294 3.65909h4.3182l3.8409 11.63641H75.044l-2.5454-8.43186h-.0909l-2.5455 8.43186Zm-.6363-4.591h6.409v2.3637h-6.409v-2.3637Z"/>
</svg>
